<?xml version="1.0" standalone="no"?>
<!DOCTYPE svg PUBLIC "-//W3C//DTD SVG 20010904//EN"
 "http://www.w3.org/TR/2001/REC-SVG-20010904/DTD/svg10.dtd">
<svg version="1.0" xmlns="http://www.w3.org/2000/svg"
 width="460.000000pt" height="460.000000pt" viewBox="0 0 460.000000 460.000000"
 preserveAspectRatio="xMidYMid meet">
<metadata>
Created by potrace 1.14, written by Peter Selinger 2001-2017
</metadata>
<g transform="translate(0.000000,460.000000) scale(0.100000,-0.100000)"
fill="#000000" stroke="none">
<path d="M0 3074 l0 -1527 73 69 c39 38 117 106 172 152 109 91 151 137 135
147 -5 3 -10 15 -10 26 0 10 -6 19 -12 19 -7 1 -2 10 11 21 17 14 21 23 13 27
-7 5 -8 13 -2 22 5 9 5 19 -1 26 -7 8 -6 15 2 20 8 5 9 3 4 -6 -5 -8 -4 -11 3
-7 5 4 8 15 5 26 -3 12 3 24 18 35 42 29 9 17 -39 -15 l-47 -31 43 37 c23 20
42 42 42 48 0 7 6 24 14 39 12 23 12 27 -2 33 -13 5 -12 8 5 20 29 20 20 59
-11 48 -11 -3 -32 -8 -46 -9 -14 -1 -37 -5 -52 -9 -16 -4 -28 -5 -28 -2 0 2
45 20 100 38 55 18 100 37 100 42 0 4 -6 5 -13 1 -6 -4 -1 5 13 20 15 17 18
25 9 21 -12 -5 -16 1 -17 25 0 16 4 30 9 30 11 0 41 64 44 93 2 22 -11 22 -42
-3 -14 -11 -29 -20 -33 -20 -11 0 -9 49 1 56 5 3 7 9 5 13 -3 4 6 13 19 19 14
7 36 17 50 24 18 8 22 15 15 23 -7 9 -5 16 6 26 14 12 14 14 -5 21 -26 9 -27
32 -1 58 11 11 20 25 20 30 0 6 9 10 19 10 27 0 35 17 11 23 -21 6 -28 39 -7
36 6 -1 22 -1 34 0 20 1 21 4 12 28 -9 24 -7 31 17 51 14 13 32 21 39 18 7 -2
26 -1 42 3 26 8 23 9 -26 16 -36 5 -49 11 -38 16 8 5 29 22 47 39 18 16 36 30
42 30 5 0 6 9 3 20 -5 16 -2 20 14 20 24 0 26 9 8 35 -17 22 -72 14 -63 -10 3
-8 1 -15 -4 -15 -5 0 -12 -9 -15 -20 -4 -11 -26 -30 -50 -41 -25 -12 -47 -29
-50 -39 -7 -21 -33 -45 -41 -37 -3 3 -18 56 -34 119 -15 62 -38 149 -49 193
-82 308 -94 548 -34 670 20 40 80 93 116 101 69 15 167 -19 260 -90 26 -20 71
-49 101 -66 30 -17 57 -37 59 -44 3 -8 24 -24 46 -37 23 -12 43 -31 46 -40 3
-10 14 -21 25 -24 10 -3 43 -29 73 -58 59 -55 79 -70 115 -89 28 -14 28 -36 0
-40 -19 -3 -14 -8 30 -31 28 -15 52 -25 52 -23 0 3 -4 16 -10 30 -11 29 -8 31
20 14 28 -18 62 15 57 56 -2 25 -16 40 -72 79 -38 26 -64 47 -58 47 14 0 109
-65 164 -112 48 -41 59 -46 59 -23 0 9 6 12 17 8 11 -4 14 -3 9 5 -9 16 14 15
35 -1 9 -7 18 -19 21 -27 3 -10 13 2 27 33 12 26 26 45 31 42 6 -4 10 3 10 14
0 23 10 27 27 10 9 -9 11 -7 7 7 -5 18 0 20 48 19 29 0 58 -4 64 -7 6 -4 26
-3 44 2 18 5 37 7 42 3 6 -3 7 3 3 17 -5 16 -4 20 4 15 7 -4 22 -1 34 7 19 12
61 17 70 8 1 -2 16 -3 32 -4 17 -1 36 -6 43 -10 7 -4 12 -4 12 0 0 4 10 -2 23
-14 19 -18 24 -19 41 -7 11 8 15 19 10 26 -5 9 -2 10 12 4 10 -4 29 -10 42
-12 12 -3 25 -9 28 -14 9 -15 24 -10 24 7 0 14 3 14 15 4 8 -7 15 -19 15 -27
0 -9 6 -13 14 -10 7 3 18 1 23 -4 11 -11 43 -2 43 12 0 5 11 9 25 9 13 0 28 7
33 17 7 12 18 14 39 10 17 -3 35 -1 40 4 7 7 20 -2 41 -27 26 -32 33 -35 46
-25 13 11 17 10 22 -3 3 -9 13 -16 21 -16 14 0 13 -11 -5 -59 -3 -9 0 -12 9
-9 8 2 15 17 17 31 2 16 9 27 19 27 10 0 14 -6 10 -20 -3 -11 -1 -20 4 -20 5
0 9 6 9 14 0 8 13 21 29 29 26 13 29 13 24 0 -5 -12 -1 -14 18 -8 13 4 28 11
33 16 18 17 28 9 22 -15 -3 -14 -2 -28 4 -31 5 -3 10 -2 10 3 0 5 18 28 40 51
22 22 40 44 40 49 0 4 39 48 85 97 47 50 85 95 85 101 0 7 12 19 26 29 14 9
52 42 85 74 114 112 225 146 319 99 37 -19 51 -34 76 -86 17 -34 36 -88 43
-119 16 -81 14 -370 -4 -478 -8 -49 -18 -134 -22 -187 -5 -80 -3 -98 8 -98 12
0 12 -2 1 -9 -10 -6 -2 -11 25 -16 36 -7 37 -8 14 -16 l-24 -10 35 -34 c20
-18 34 -36 30 -39 -3 -3 11 -21 31 -39 20 -18 37 -38 37 -44 0 -7 9 -17 20
-23 11 -6 19 -14 18 -18 -3 -15 22 -62 33 -62 6 0 9 -6 6 -14 -11 -29 20 -41
71 -27 79 22 90 22 32 1 -62 -23 -85 -40 -55 -40 11 0 137 -1 280 -2 l260 -2
-272 -5 c-253 -6 -310 -11 -269 -27 9 -3 13 -10 10 -15 -3 -6 1 -21 10 -34 9
-13 16 -31 16 -38 0 -8 7 -20 15 -27 9 -8 13 -23 10 -41 -3 -15 0 -31 6 -34 6
-4 7 -19 4 -35 -4 -17 -2 -31 5 -35 9 -5 9 -9 1 -14 -17 -11 9 -58 39 -72 21
-11 22 -13 7 -17 -12 -2 -15 -7 -8 -15 5 -7 10 -16 10 -22 1 -6 102 -11 276
-13 l275 -3 0 215 c0 215 0 215 -22 219 l-23 4 23 2 22 1 0 910 0 910 -2300 0
-2300 0 0 -1526z m1627 784 c-3 -7 -5 -2 -5 12 0 14 2 19 5 13 2 -7 2 -19 0
-25z m453 -78 c0 -5 -7 -10 -15 -10 -8 0 -15 5 -15 10 0 6 7 10 15 10 8 0 15
-4 15 -10z m-795 -20 c3 -5 2 -10 -4 -10 -5 0 -13 5 -16 10 -3 6 -2 10 4 10 5
0 13 -4 16 -10z m3152 -806 c-3 -3 -12 -4 -19 -1 -8 3 -5 6 6 6 11 1 17 -2 13
-5z m-321 -80 c-38 -13 -71 -22 -73 -20 -5 5 107 44 127 44 8 0 -16 -10 -54
-24z m-3635 -358 c-6 -7 -8 -21 -5 -31 5 -11 -2 -25 -21 -41 -16 -13 -23 -24
-16 -24 7 0 9 -9 5 -27 -8 -30 -21 -43 -44 -43 -12 1 -11 4 3 14 13 10 15 16
7 21 -9 6 -9 10 1 16 11 7 11 11 2 17 -10 7 -10 14 0 35 6 15 15 27 20 27 4 0
7 6 7 13 0 8 10 19 23 25 30 14 31 14 18 -2z m-201 -240 c0 -2 -7 -7 -16 -10
-8 -3 -12 -2 -9 4 6 10 25 14 25 6z m120 -26 c0 -5 -8 -10 -17 -10 -15 0 -16
2 -3 10 19 12 20 12 20 0z"/>
<path d="M2978 3609 c-27 -15 -21 -29 13 -29 23 0 30 4 27 17 -4 21 -18 25
-40 12z"/>
<path d="M1641 3594 c0 -11 3 -14 6 -6 3 7 2 16 -1 19 -3 4 -6 -2 -5 -13z"/>
<path d="M1214 3546 c17 -14 18 -16 3 -16 -9 0 -17 -7 -17 -15 0 -8 -6 -15
-12 -16 -7 0 -4 -4 7 -9 18 -8 17 -9 -8 -9 -19 -1 -26 3 -21 10 4 7 1 10 -7 7
-8 -3 -13 -10 -12 -16 5 -20 -36 -35 -54 -20 -14 11 -15 9 -11 -21 4 -27 1
-35 -14 -39 -10 -2 -18 -8 -18 -13 0 -4 -21 -11 -46 -15 -31 -4 -42 -9 -33
-15 13 -8 5 -13 -14 -10 -4 1 -19 -17 -35 -39 -15 -21 -31 -40 -37 -40 -5 0
-21 -10 -34 -21 -18 -15 -21 -23 -13 -31 16 -16 15 -28 -3 -28 -20 0 -19 -16
1 -24 19 -7 74 14 74 28 0 5 -8 18 -17 29 -18 19 -17 20 10 13 17 -4 26 -3 23
3 -7 11 22 23 36 14 7 -3 8 -1 4 5 -4 7 -1 12 8 12 22 0 20 17 -1 23 -13 3
-12 5 5 6 13 0 20 6 17 11 -3 6 -1 10 5 10 6 0 10 8 8 17 -2 14 8 19 47 27 28
5 52 12 55 16 3 4 23 12 45 18 25 6 32 10 18 11 -13 1 -23 6 -23 12 0 7 10 9
24 5 17 -4 33 1 53 18 15 13 37 26 48 29 19 4 18 5 -2 6 -12 0 -24 5 -27 10
-3 5 16 6 42 3 44 -5 46 -4 32 13 -8 10 -13 21 -12 24 2 3 -10 12 -28 19 -18
7 -29 8 -25 2 8 -13 -10 -13 -38 1 -21 10 -21 10 -3 -5z"/>
<path d="M2915 3353 c60 -7 157 -62 113 -63 -7 0 -5 -5 5 -11 31 -18 39 -5 16
25 -28 35 -77 56 -126 55 -33 -2 -34 -2 -8 -6z"/>
<path d="M1058 3343 c7 -3 16 -2 19 1 4 3 -2 6 -13 5 -11 0 -14 -3 -6 -6z"/>
<path d="M2774 3309 c-59 -31 -95 -56 -62 -44 12 5 20 1 24 -9 4 -10 11 -13
22 -8 14 6 62 7 115 3 4 -1 7 -6 7 -12 0 -6 6 -17 14 -25 11 -11 16 -11 20 -1
5 9 7 9 12 -2 5 -9 11 -4 20 19 8 18 14 36 14 40 0 8 -64 36 -104 45 -23 5
-27 8 -15 16 35 22 -14 6 -67 -22z"/>
<path d="M1313 3246 c-18 -8 -33 -18 -33 -21 0 -3 8 -2 18 3 26 14 112 23 112
12 0 -5 -12 -16 -27 -24 -16 -8 -50 -35 -77 -60 -43 -38 -48 -47 -37 -60 14
-17 61 -22 61 -7 0 4 11 20 25 35 21 23 27 25 44 14 14 -8 19 -19 15 -34 -4
-14 0 -23 11 -28 11 -4 14 -2 10 7 -4 6 0 4 8 -6 17 -21 89 -26 111 -8 14 12
14 16 1 42 -9 15 -14 32 -13 36 2 5 -7 19 -19 33 -13 13 -23 27 -23 32 0 4 -9
8 -21 8 -11 0 -18 4 -14 9 6 11 88 -11 111 -30 12 -10 15 -10 12 1 -10 44
-207 77 -275 46z"/>
<path d="M2970 3216 c4 -4 16 -4 26 2 16 9 14 10 -8 9 -15 -1 -23 -6 -18 -11z"/>
<path d="M1245 3210 c-3 -5 -1 -10 4 -10 6 0 11 5 11 10 0 6 -2 10 -4 10 -3 0
-8 -4 -11 -10z"/>
<path d="M2721 3181 c-1 -24 2 -32 9 -25 7 7 7 19 1 35 -9 23 -10 22 -10 -10z"/>
<path d="M1622 3177 c16 -6 30 -19 34 -29 6 -19 24 -25 24 -8 0 6 -5 10 -11
10 -5 0 -8 4 -4 9 7 12 -27 31 -52 30 -13 -1 -10 -4 9 -12z"/>
<path d="M1583 3130 c1 -11 7 -20 13 -20 7 0 10 8 7 20 -3 11 -9 20 -14 20 -4
0 -7 -9 -6 -20z"/>
<path d="M1690 3126 c0 -10 -7 -12 -22 -8 -20 5 -21 4 -10 -11 17 -20 8 -37
-19 -37 -10 0 -19 -4 -19 -10 0 -5 12 -10 27 -10 40 0 143 33 143 46 0 20 -13
24 -27 6 -12 -16 -14 -15 -34 11 -23 29 -39 35 -39 13z m10 -30 c0 -3 -4 -8
-10 -11 -5 -3 -10 -1 -10 4 0 6 5 11 10 11 6 0 10 -2 10 -4z"/>
<path d="M1380 3110 c0 -5 5 -10 10 -10 6 0 10 5 10 10 0 6 -4 10 -10 10 -5 0
-10 -4 -10 -10z"/>
<path d="M720 2939 c0 -5 5 -7 10 -4 6 3 10 8 10 11 0 2 -4 4 -10 4 -5 0 -10
-5 -10 -11z"/>
<path d="M555 2759 c-4 -6 -3 -15 3 -21 6 -6 11 -4 15 6 7 18 -9 31 -18 15z"/>
<path d="M530 2609 c0 -6 -9 -9 -19 -6 -14 3 -18 1 -14 -9 6 -17 6 -17 38 -2
28 12 33 28 10 28 -8 0 -15 -5 -15 -11z"/>
<path d="M4125 2315 c17 -8 61 -28 99 -45 38 -16 67 -33 64 -36 -4 -3 -25 4
-49 16 -23 12 -72 33 -107 47 -52 19 -67 21 -73 11 -11 -17 -6 -33 10 -33 7 0
20 -9 29 -21 9 -12 26 -24 36 -28 10 -3 16 -9 13 -12 -3 -3 -19 2 -36 11 -41
21 -62 9 -30 -16 13 -10 18 -19 12 -19 -7 0 -13 -4 -13 -10 0 -5 21 -10 48
-11 l47 -1 -34 -10 c-26 -7 -31 -12 -20 -19 11 -7 9 -9 -9 -9 -17 0 -22 -5
-20 -17 1 -10 -1 -23 -4 -29 -12 -19 31 -48 182 -126 80 -42 185 -98 234 -127
49 -28 90 -51 92 -51 2 0 4 124 4 275 l0 275 -216 0 c-169 0 -214 -3 -208 -12
6 -10 4 -10 -7 0 -7 6 -27 12 -43 11 l-31 0 30 -14z m225 -105 c19 -11 31 -19
25 -19 -5 0 -26 8 -45 19 -19 11 -30 19 -25 19 6 0 26 -8 45 -19z m120 -65 c0
-3 -18 4 -40 15 -22 11 -40 23 -40 25 0 3 18 -4 40 -15 22 -11 40 -23 40 -25z
m-237 28 c-7 -2 -19 -2 -25 0 -7 3 -2 5 12 5 14 0 19 -2 13 -5z m283 -49 c18
-14 18 -14 -6 -3 -31 14 -36 19 -24 19 6 0 19 -7 30 -16z m49 -32 c-3 -3 -11
0 -18 7 -9 10 -8 11 6 5 10 -3 15 -9 12 -12z"/>
<path d="M4095 2020 c3 -6 -1 -10 -9 -10 -21 0 -20 -24 0 -55 9 -14 13 -25 9
-25 -3 0 40 -34 97 -77 159 -118 357 -273 365 -286 9 -14 -76 47 -172 124 -92
74 -254 193 -283 208 -26 14 -74 5 -51 -10 12 -7 11 -9 -1 -9 -12 -1 -11 -3 3
-14 17 -13 17 -16 3 -45 -20 -38 -10 -69 42 -126 20 -22 51 -59 69 -80 18 -22
55 -68 83 -102 29 -35 49 -63 46 -63 -2 0 -48 51 -100 113 -52 61 -110 130
-129 151 l-34 39 0 -34 c0 -19 4 -40 10 -47 8 -10 7 -16 -2 -22 -8 -5 -10 -13
-5 -21 7 -12 5 -12 -9 -1 -9 8 -24 12 -34 10 -15 -4 -13 -7 10 -18 27 -13 27
-15 11 -27 -10 -7 -12 -13 -6 -13 20 0 13 -32 -8 -37 -19 -5 -20 -6 -3 -19 11
-8 13 -13 6 -14 -22 0 -15 -14 53 -110 121 -168 284 -460 309 -550 3 -14 -22
34 -58 105 -35 72 -83 162 -107 200 -23 39 -51 86 -62 105 -36 61 -129 180
-143 180 -17 0 -24 -21 -14 -41 6 -12 2 -19 -16 -27 -25 -11 -34 -32 -15 -32
6 0 10 -4 10 -10 0 -5 -7 -10 -16 -10 -13 0 -14 -3 -5 -13 8 -10 7 -17 -1 -25
-8 -8 -8 -15 2 -27 7 -8 9 -15 4 -15 -5 0 -2 -5 6 -10 12 -8 11 -10 -7 -10
-13 0 -22 -3 -22 -7 1 -5 0 -10 -1 -13 -8 -22 -4 -83 6 -87 7 -2 11 -13 9 -24
-2 -10 0 -19 4 -19 4 0 8 -14 8 -30 0 -21 7 -36 22 -46 13 -9 20 -22 17 -30
-3 -8 1 -17 9 -20 7 -3 11 -12 9 -19 -7 -16 30 -55 51 -55 8 0 14 -3 14 -7 -1
-5 0 -12 1 -18 1 -5 3 -17 4 -25 0 -8 11 -20 24 -26 l23 -11 -23 -7 c-22 -5
-19 -9 37 -61 33 -30 62 -55 66 -55 4 0 9 -12 12 -27 5 -19 21 -37 54 -57 27
-16 42 -31 36 -33 -20 -7 -15 -21 8 -28 11 -4 18 -13 16 -20 -3 -7 6 -18 21
-25 l27 -12 -24 -13 -24 -13 27 -27 c15 -15 25 -30 22 -33 -8 -7 45 -42 55
-36 4 2 9 -28 11 -67 2 -39 0 -73 -4 -75 -4 -3 -3 -16 2 -29 7 -18 6 -25 -3
-25 -6 -1 -1 -7 13 -14 l24 -14 -24 -4 -24 -3 27 -27 c23 -23 25 -28 12 -36
-10 -5 -13 -15 -9 -25 5 -14 20 -17 75 -17 l69 0 0 883 0 882 -23 11 c-12 6
-51 28 -87 49 -169 97 -407 215 -395 195z m226 -597 c13 -16 12 -17 -3 -4 -17
13 -22 21 -14 21 2 0 10 -8 17 -17z m95 -728 c8 -27 13 -59 13 -70 0 -11 -9
12 -19 50 -10 39 -23 83 -29 98 -6 16 -11 34 -10 40 1 15 27 -53 45 -118z m21
-132 c-3 -10 -5 -4 -5 12 0 17 2 24 5 18 2 -7 2 -21 0 -30z"/>
<path d="M329 1820 c-45 -29 -209 -169 -286 -243 l-43 -41 0 -696 1 -695 24
50 c14 28 32 84 41 125 9 41 21 82 27 90 7 8 21 32 31 52 11 21 23 38 28 38 4
0 8 12 8 26 0 38 49 220 72 271 6 11 7 27 3 34 -5 7 -4 10 2 6 9 -5 34 39 48
83 1 3 5 14 9 25 5 11 15 38 23 60 8 22 26 55 39 72 14 18 26 46 27 62 2 24 5
27 16 18 12 -9 13 -9 7 1 -10 16 12 82 27 83 7 1 23 2 36 2 13 1 26 8 29 16 3
9 -1 11 -17 6 -12 -4 -21 -2 -21 4 0 6 4 11 9 11 5 0 11 9 14 20 3 11 1 20 -5
20 -5 0 -6 5 -2 12 5 8 0 9 -17 5 l-24 -6 23 18 c21 15 22 19 8 30 -11 10 -13
18 -6 31 8 15 6 19 -13 22 -16 2 -21 9 -19 26 2 12 -2 22 -8 22 -6 0 -8 5 -5
10 3 6 0 10 -8 10 -8 0 -52 -37 -98 -82 -87 -85 -73 -67 45 61 52 56 65 76 55
82 -12 7 -12 10 -1 18 11 6 10 11 -3 25 -9 9 -21 16 -27 16 -6 0 -6 6 2 15 10
12 9 15 -4 15 -18 0 -107 -56 -176 -110 -81 -64 -120 -91 -120 -83 0 4 13 17
29 28 16 11 55 40 87 65 33 24 82 60 109 79 57 40 81 61 67 61 -21 0 -92 -30
-132 -55 -23 -14 -44 -24 -47 -22 -2 3 17 18 44 33 106 60 119 68 137 87 19
19 19 20 -4 37 -16 12 -19 19 -10 25 9 6 9 9 -1 16 -10 6 -7 10 10 17 14 5 20
12 14 15 -6 4 -30 -7 -54 -23z m-154 -220 c-3 -5 -11 -10 -16 -10 -6 0 -7 5
-4 10 3 6 11 10 16 10 6 0 7 -4 4 -10z m-65 -35 c0 -2 -10 -9 -22 -15 -22 -11
-22 -10 -4 4 21 17 26 19 26 11z m-40 -119 c0 -2 -12 -11 -27 -20 l-28 -17 24
20 c23 21 31 25 31 17z m128 -160 c-18 -24 -35 -42 -37 -40 -4 3 58 84 65 84
3 0 -10 -20 -28 -44z m-54 -81 c-9 -14 -18 -25 -21 -25 -5 0 5 18 20 38 17 22
18 13 1 -13z"/>
<path d="M458 1203 c6 -2 18 -2 25 0 6 3 1 5 -13 5 -14 0 -19 -2 -12 -5z"/>
<path d="M0 68 c0 -38 3 -49 10 -38 13 20 13 77 0 85 -6 4 -10 -14 -10 -47z"/>
<path d="M397 87 c-5 -38 -5 -39 15 -32 18 7 19 53 2 59 -7 3 -14 -9 -17 -27z"/>
<path d="M366 24 c-4 -9 -4 -19 -1 -23 8 -7 41 14 38 25 -4 17 -30 15 -37 -2z"/>
</g>
</svg>
